<svg id="Layer_1" data-name="Layer 1" xmlns="http://www.w3.org/2000/svg" viewBox="0 0 276 62.6828"><defs><style>.cls-1{fill:#54565a;}.cls-2{fill:#38d430;}</style></defs><title>PD-logo-lockup-2-colour-RGB</title><path class="cls-1" d="M177.1453,188.7744v21.53H171.48v-2.3778a7.8993,7.8993,0,0,1-6.4435,2.9335c-5.9322,0-10.4208-4.8661-10.4208-11.3317s4.4886-11.3316,10.4208-11.3316a7.881,7.881,0,0,1,6.4435,2.955ZM160.548,199.5289c0,3.288,2.1552,5.9322,5.5549,5.9322,3.31,0,5.5541-2.5332,5.5541-5.9322s-2.244-5.9329-5.5541-5.9329C162.7032,193.596,160.548,196.24,160.548,199.5289Z" transform="translate(-60.704 -168.1586)"/><path class="cls-1" d="M224.7536,199.5067a16.6234,16.6234,0,0,1-.111,1.9548h-15.264a5.1972,5.1972,0,0,0,5.5326,4.4664,8.7044,8.7044,0,0,0,5.4432-2.0664l3.4,3.7326a13.0662,13.0662,0,0,1-9.1764,3.2665c-6.5988,0-11.1763-4.4887-11.1763-11.2651s4.4443-11.3982,10.8877-11.3982C220.4876,188.1973,224.7314,192.7962,224.7536,199.5067Zm-15.3528-2h9.5316c-.5328-2.7552-2.2-4.31-4.6878-4.31C211.5116,193.1965,209.912,194.8405,209.4008,197.5069Z" transform="translate(-60.704 -168.1586)"/><path class="cls-1" d="M242.4657,188.6634l-.8664,5.7546a9.4258,9.4258,0,0,0-3.5106-.6888c-2.6887,0-4.5331,1.6447-4.5331,4.8439v11.7318h-5.799v-21.53h5.6214V191.13a6.7955,6.7955,0,0,1,6.0661-2.9328A8.8137,8.8137,0,0,1,242.4657,188.6634Z" transform="translate(-60.704 -168.1586)"/><path class="cls-2" d="M290.9991,188.7744v21.53h-5.6658v-2.3778a7.8991,7.8991,0,0,1-6.4434,2.9335c-5.9322,0-10.4209-4.8661-10.4209-11.3317s4.4887-11.3316,10.4209-11.3316a7.8808,7.8808,0,0,1,6.4434,2.955Zm-16.5972,10.7545c0,3.288,2.1552,5.9322,5.5548,5.9322,3.31,0,5.5542-2.5332,5.5542-5.9322s-2.244-5.9329-5.5542-5.9329C276.5571,193.596,274.4019,196.24,274.4019,199.5289Z" transform="translate(-60.704 -168.1586)"/><path class="cls-2" d="M336.704,188.7744v21.53h-5.6658v-2.3778a7.8991,7.8991,0,0,1-6.4434,2.9335c-5.9322,0-10.4209-4.8661-10.4209-11.3317s4.4887-11.3316,10.4209-11.3316a7.8808,7.8808,0,0,1,6.4434,2.955Zm-16.5972,10.7545c0,3.288,2.1552,5.9322,5.5548,5.9322,3.31,0,5.5542-2.5332,5.5542-5.9322s-2.244-5.9329-5.5542-5.9329C322.262,193.596,320.1068,196.24,320.1068,199.5289Z" transform="translate(-60.704 -168.1586)"/><polygon class="cls-1" points="85.109 10.441 85.109 42.146 90.908 42.146 90.908 16.24 85.109 10.441"/><path class="cls-1" d="M120.28,188.7744v25.99l5.7768,5.7768v-12.48a7.8778,7.8778,0,0,0,6.3324,2.8c5.9329,0,10.4209-4.8661,10.4209-11.3317s-4.488-11.3316-10.4431-11.3316a7.8049,7.8049,0,0,0-6.4212,2.955Zm11.0208,16.6867c-3.2886,0-5.5326-2.5332-5.5326-5.9322s2.244-5.9329,5.5326-5.9329c3.4219,0,5.5549,2.6443,5.5549,5.9329S134.7228,205.4611,131.3009,205.4611Z" transform="translate(-60.704 -168.1586)"/><path class="cls-2" d="M265.466,210.3049V184.3767L259.6892,178.6v12.4192a7.8234,7.8234,0,0,0-6.3325-2.8218c-5.9322,0-10.4208,4.866-10.4208,11.3316s4.4886,11.3317,10.4208,11.3317a7.8993,7.8993,0,0,0,6.4435-2.9335Zm-11.0424-4.8438c-3.4,0-5.5548-2.6442-5.5548-5.9322s2.1552-5.9329,5.5548-5.9329c3.31,0,5.5542,2.5333,5.5542,5.9329S257.7338,205.4611,254.4236,205.4611Z" transform="translate(-60.704 -168.1586)"/><polygon class="cls-1" points="136.597 20.616 130.91 34.69 124.644 20.616 118.296 20.616 127.882 42.145 127.902 42.135 124.213 51.266 130.468 51.266 142.851 20.616 136.597 20.616"/><polygon class="cls-2" points="28.576 48.441 37.032 39.984 37.032 8.456 28.576 0 28.576 39.984 11.468 39.984 11.468 48.441 28.576 48.441"/><polygon class="cls-1" points="8.456 14.242 0 22.698 0 54.227 8.456 62.683 8.456 22.698 25.556 22.698 25.556 14.242 8.456 14.242"/><path class="cls-2" d="M311.2144,204.0613a8.4136,8.4136,0,0,1-4.0434,1.4c-1.8,0-3.222-.9774-3.222-3.666V193.93h7.7988v-5.1553H303.949v-8.6851l-5.799,5.799v2.8861h-4.1551V193.93H298.15v8.3316c0,5.577,2.733,8.5993,8.0652,8.5993a12.0178,12.0178,0,0,0,7.1329-2.2669Z" transform="translate(-60.704 -168.1586)"/></svg>